<svg width="16" height="16" viewBox="0 0 16 16" fill="none" xmlns="http://www.w3.org/2000/svg">
<g id="Frame" clip-path="url(#clip0_158_1506)">
<path id="Vector" d="M8 14.75C11.7279 14.75 14.75 11.7279 14.75 8C14.75 4.27208 11.7279 1.25 8 1.25C4.27208 1.25 1.25 4.27208 1.25 8C1.25 11.7279 4.27208 14.75 8 14.75Z" stroke="#180E19" stroke-width="1.5" stroke-linecap="round" stroke-linejoin="round"/>
<path id="Vector_2" d="M8 10.25C9.5533 10.25 10.8125 8.9908 10.8125 7.4375C10.8125 5.8842 9.5533 4.625 8 4.625C6.4467 4.625 5.1875 5.8842 5.1875 7.4375C5.1875 8.9908 6.4467 10.25 8 10.25Z" stroke="#180E19" stroke-width="1.5" stroke-linecap="round" stroke-linejoin="round"/>
<path id="Vector_3" d="M3.48584 13.0203C3.90906 12.1867 4.55484 11.4866 5.35161 10.9975C6.14838 10.5085 7.06501 10.2496 7.9999 10.2496C8.93479 10.2496 9.85142 10.5085 10.6482 10.9975C11.445 11.4866 12.0907 12.1867 12.514 13.0203" stroke="#180E19" stroke-width="1.5" stroke-linecap="round" stroke-linejoin="round"/>
</g>
<defs>
<clipPath id="clip0_158_1506">
<rect width="18" height="18" fill="white" transform="translate(-1 -1)"/>
</clipPath>
</defs>
</svg>
